PathFileType	4	(X/Y/Z)	Patient4_TMGait_0pt2_01_right_22.trc.trc
DataRate	CameraRate	NumFrames	NumMarkers	Units	OrigDataRate	OrigDataStartFrame	OrigNumFrames
45.454545454545	45.454545454545	5	33	mm	45.454545454545	1	       141
Frame#	Time	Sacral			L.Shoulder			Chest			R.Shoulder			Neck			R.ASIS			L.ASIS			R.Thigh.Superior			R.Thigh.Lateral			R.Thigh.Inferior			R.Patella			L.Thigh.Superior			L.Thigh.Lateral			L.Thigh.Inferior			L.Patella			L.Shank.Superior			L.Shank.Lateral			L.Shank.Inferior			R.Shank.Superior			R.Shank.Lateral			R.Shank.Inferior			R.Heel			R.Midfoot.Superior			R.Midfoot.Lateral			R.Toe			L.Heel			L.Midfoot.Lateral			L.Midfoot.Superior			L.Toe			L.Elbow			L.Wrist			R.Elbow			R.Wrist			
		X1	Y1	Z1	X2	Y2	Z2	X3	Y3	Z3	X4	Y4	Z4	X5	Y5	Z5	X6	Y6	Z6	X7	Y7	Z7	X8	Y8	Z8	X9	Y9	Z9	X10	Y10	Z10	X11	Y11	Z11	X12	Y12	Z12	X13	Y13	Z13	X14	Y14	Z14	X15	Y15	Z15	X16	Y16	Z16	X17	Y17	Z17	X18	Y18	Z18	X19	Y19	Z19	X20	Y20	Z20	X21	Y21	Z21	X22	Y22	Z22	X23	Y23	Z23	X24	Y24	Z24	X25	Y25	Z25	X26	Y26	Z26	X27	Y27	Z27	X28	Y28	Z28	X29	Y29	Z29	X30	Y30	Z30	X31	Y31	Z31	X32	Y32	Z32	X33	Y33	Z33	

1	49.440000000000	738.045658412181	989.670029183842	426.668805456902	902.310284988756	1427.121922627916	258.259386045572	1002.974352917949	1359.406386634925	420.972905729902	913.173719853390	1423.082753299280	595.197598327036	878.444612727271	1486.224624969248	417.827136367826	967.478248024852	933.127586176721	551.341483108199	962.468421514402	955.315318152005	278.087797157145	1037.964126426266	743.982942261485	525.149973467490	979.977099570923	627.767228978656	594.043238542407	1064.836469944725	577.699458504209	515.189755745602	1068.322158750512	464.825510407918	539.100507853044	1029.968172285295	751.120837160645	324.083554205142	962.731628583350	619.896825467869	266.209629869276	1048.484004449737	556.417039051902	342.463629535584	1054.752724009982	483.084089032140	353.982314254380	1020.287315343645	406.818330506983	346.781034173013	926.515883523927	298.616002315673	290.750280944695	957.731648323308	186.786213380109	369.496933179399	985.063933175250	399.525668327738	552.720056796622	862.956261922365	375.302838875685	620.310352139990	835.703932898624	265.772925622149	577.845261327236	630.823230310350	235.232868977917	559.426400224859	785.489077178430	143.965115790356	601.877469427749	678.559971961697	167.951270589127	634.293915821151	827.084732007807	25.542583603598	630.557107318191	813.002549318469	38.338029955235	400.244822552484	892.411039599451	36.050093004290	324.801457719856	974.647786841934	96.109561171694	358.405956052848	1104.007409017316	42.685116633290	337.635025703085	937.355434509247	1083.644260024206	117.157678216710	1061.336740212114	851.357555426392	132.673667329452	962.823860744820	1066.524216667513	696.973158874721	1140.307559113649	873.608535861431	702.189197512946	
2	49.462000000000	737.321279064675	987.891245477089	423.340220552387	903.483577406761	1426.398948683670	256.956958021373	1001.773150012504	1358.432259041340	420.896824572384	909.292713024670	1421.208149746214	594.106587697599	877.586949165369	1485.221152455238	416.495933025497	965.973969004035	932.683004915796	549.867207664129	962.990550296550	954.737709655717	276.441055640050	1041.421615992890	748.308292197754	520.655139701988	989.359681695105	630.496166307831	589.654882010811	1074.355600633227	583.394419787045	509.124327126049	1081.829845555085	469.948974997175	532.852925793917	1030.458108333699	749.968920161309	322.641653185263	963.001506783898	618.776369671759	265.126821624293	1047.994141757642	555.261425176590	342.270316175903	1053.975652273024	481.909029675866	354.188202325442	1018.882192077507	405.624769288384	346.780152546539	924.493114233650	298.043647356114	290.410104139577	954.302384465663	186.173734177711	369.530727525601	998.613111696488	403.426367621659	547.245970579645	875.614887628921	379.051772452349	613.547121140492	849.719414624279	268.779145002191	572.298242886916	644.508896861892	234.531373805786	551.797097213745	800.963439260358	148.098235978450	597.287903782979	693.167802976875	170.017122725360	628.368491810968	844.883841798834	30.357300252247	628.958936218637	808.549895011034	38.301832706356	400.178541208623	888.015065718165	36.010969974281	324.722519251172	970.244764542493	96.045807561276	358.426918594687	1099.610603510757	42.712529681537	337.642779085132	950.415959283191	1086.234144336629	114.061588081833	1087.534005398622	863.006069238393	130.017108367241	940.838218849200	1063.352076777190	693.417966830671	1096.162162733164	857.194249729028	699.448009567084	
3	49.484000000000	736.601605037356	986.399221030499	419.929699083263	904.814766040149	1425.904239595633	255.714424957920	1000.617380802714	1357.669621234558	420.925511739187	905.374837550744	1419.611090570187	593.017993580292	876.787835306442	1484.434421884309	415.181442466902	964.394736183195	932.414962886032	548.407484400199	963.547554976822	954.348571512388	274.814931286859	1044.658867148620	752.753906881979	516.338443548856	998.304030953789	633.400024584815	585.475242879910	1083.487626777369	589.216948649384	503.382004984000	1094.964752455637	475.391698686849	526.999495145715	1030.730198002966	748.858278612450	321.153578465942	962.879729106485	617.781089643953	263.970513069761	1047.050366527071	554.138483147926	341.942110198726	1052.687391875653	480.805754626386	354.244366505188	1017.013074797165	404.542440506374	346.646106421851	922.069544843713	297.502827032736	289.979020223756	950.581215593695	185.622826790531	369.495430621686	1012.182968893130	407.406800509153	542.078786232840	888.513319086847	382.084296649334	607.044468298420	864.700702213637	271.020671959080	566.918850564734	659.619424224193	231.734250502082	544.306185356558	818.187268305440	151.317399000995	592.786499382350	709.524268005880	170.266116254130	622.503009986873	865.195982539934	34.728071187772	627.193069296671	803.914116355307	38.262560737714	400.110443538405	883.435587174077	35.966278566247	324.635130459863	965.654663549381	95.984688962488	358.419345761716	1095.032081784502	42.742052144111	337.645076591364	963.768961624444	1089.260529646753	111.019175813723	1114.350030933249	875.806212057848	127.523583492112	918.095941322696	1060.936494924817	689.938740291995	1050.668075368556	841.990032759707	696.493884812530	
4	49.506000000000	735.917991856408	985.359498913415	416.540025581021	906.326860511266	1425.741893467069	254.610805382919	999.571409130086	1357.225661899156	421.107115992705	901.557326284279	1418.460682364189	591.981245034205	876.106596950693	1483.975416256961	413.945804361982	962.764754784097	932.406521779672	547.039124381282	964.136352334969	954.229010045213	273.299166763451	1047.434604581507	757.161249325754	512.462132477883	1006.241077609566	636.412743694260	581.776368417629	1091.663365785585	594.947248709864	498.338804039893	1107.006719731998	481.044929910565	521.937630333485	1030.684818419879	747.844111610818	319.683183792287	962.219271420743	616.997899048793	262.766402396585	1045.501253732461	553.101962679367	341.456268508905	1050.721234125435	479.843036557037	354.107089081252	1014.558604822917	403.654011450282	346.346088282967	919.175001180076	297.025567593102	289.446966517394	946.584321170295	185.176132107033	369.372917080429	1025.219294348693	411.340797006742	537.568076739437	901.287130903431	383.994335473847	601.225624134466	880.491474894034	272.142256047572	562.042801571065	676.258221978436	226.168634324603	537.408689307446	837.247329013286	153.185960172016	588.631175453064	727.812976641225	168.051996099825	617.047073182509	888.278366346379	38.425937071074	625.330746685870	799.188798159010	38.220767377149	400.041437181117	878.764152928308	35.916471382527	324.540200226357	960.968306707390	95.929666467978	358.376028607443	1090.364017895521	42.773888373310	337.640789417842	977.028101272671	1092.784828532371	108.172607667511	1140.989002349114	889.773480305699	125.362062210311	895.165132894037	1059.700260796000	686.674651497869	1005.099546475185	829.095969587367	693.367941567549	
5	49.528000000000	735.298438326088	984.885502171095	413.256435074014	908.038434924865	1425.981709517363	253.710087889142	998.682807639424	1357.173630073427	421.480261882519	897.947205616311	1417.877268567808	591.038958507680	875.589007576201	1483.919208658907	412.840680827948	961.105768552820	932.720708477579	545.833512148426	964.759403906106	954.430597461687	271.974089465242	1049.551037041951	761.373123693607	509.244225280858	1012.704016304895	639.449329154849	578.778224077607	1098.408362659113	600.369069852982	494.297149887561	1117.357824307200	486.786432631127	517.978201016091	1030.250014265189	746.964613664789	318.300567816397	960.923795705101	616.489043433097	261.544674357623	1043.241034036987	552.190540520172	340.815037750477	1047.956848481513	479.070960079858	353.763252141887	1011.434636402639	403.017577902097	345.871736437864	915.766344020887	296.634676712207	288.816510533559	942.326308713146	184.862442417584	369.159042589396	1037.260673246434	415.117758429173	534.001086826581	913.672074821770	384.484577144319	596.469012446978	896.962795453400	271.921262437517	557.980895550096	694.551777576786	217.443265371957	531.549386025757	858.186629113902	153.433430536220	585.076259851792	748.200541009492	163.004767978306	612.354945424025	914.237089616287	41.345459522808	623.485340622167	794.444554004570	38.177489690609	399.971357371998	874.068594712545	35.862455079821	324.439993968866	956.252939061136	95.883091199636	358.295512874515	1085.674301076316	42.809597136802	337.630208886684	989.889561883042	1096.840570919726	105.633986721380	1166.798703689354	904.913071297223	123.664398980525	872.509391570764	1059.966355804622	683.711121231160	960.556675696743	819.346346060756	690.125714018138	
